# xmcd
#
# Track frame offsets:
#	150
#	12810
#	25762
#	38550
#	51162
#	60482
#	71665
#	83922
#	95857
#	107090
#	119505
#	127875
#	138155
#	148995
#	160737
#	174675
#	188120
#	198942
#	214660
#	226075
#
# Disc length: 3184
#
# Revision: 2
# Processed by: cddbd v1.5.1PL0 Copyright (c) Steve Scherf et al.
# Submitted via: EasyCDDAExtractor 4.5.2.1
# Normalized: r0:TDELIM( - ),TSWAP
#
DISCID=130c6e14
DTITLE=Various Artits - Country Crossroads, Disc 3
DYEAR=1996
DGENRE=Country
TTITLE0=Hank Snow - The Rhumba Boogie
TTITLE1=Jim Reeves - Distant Drums
TTITLE2=Johnny Cash - Folsom Prison Blues
TTITLE3=George Jones - White Lightning
TTITLE4=Chet Atkins - Yakety Axe
TTITLE5=Waylon Jennings and The Waylors - The Cheatin' Kind
TTITLE6=Bobby Bare - 500 Miles Away From Home
TTITLE7=Skeeter Davis - End Of The World
TTITLE8=Eddy Arnold - Somebody Like Me
TTITLE9=Patsy Cline - Crazy
TTITLE10=Johnny Cash - Guess Things Happen That Way
TTITLE11=Eddy Arnold - Threr's Been A Change In Me
TTITLE12=Jim Reeves - I Guess I'm Crazy
TTITLE13=Faron Young - Country Girl
TTITLE14=Glenn Campbell - Wichita Lineman
TTITLE15=Gale Garnett - We'll Sing In The Sunshine
TTITLE16=Porter Wagoner - Uncle Pen
TTITLE17=Bill Anderson - Mama Sang A Song
TTITLE18=Tennessee Ernie Ford - His Amazing Grace
TTITLE19=The Browns - The Three Bells
EXTD=
EXTT0=
EXTT1=
EXTT2=
EXTT3=
EXTT4=
EXTT5=
EXTT6=
EXTT7=
EXTT8=
EXTT9=
EXTT10=
EXTT11=
EXTT12=
EXTT13=
EXTT14=
EXTT15=
EXTT16=
EXTT17=
EXTT18=
EXTT19=
PLAYORDER=
